<?xml version="1.0" encoding="UTF-8" standalone="no"?>
<!DOCTYPE svg PUBLIC "-//W3C//DTD SVG 1.1//EN" "http://www.w3.org/Graphics/SVG/1.1/DTD/svg11.dtd">
<svg width="285px" height="100px" version="1.1" xmlns="http://www.w3.org/2000/svg" xmlns:xlink="http://www.w3.org/1999/xlink" xml:space="preserve" xmlns:serif="http://www.serif.com/" style="fill-rule:evenodd;clip-rule:evenodd;stroke-linejoin:round;stroke-miterlimit:2;">
    <rect id="BMI_2018_DTP_Spot_de" x="0" y="0" width="285" height="100" style="fill:none;"/>
    <g>
        <rect id="ArtBoard1" x="0" y="0" width="185" height="100" style="fill:none;"/>
        <rect id="Background" x="0" y="0" width="285" height="100" style="fill:white;"/>
        <path d="M23.532,16.953C23.572,16.621 23.596,16.278 23.596,15.928C23.596,15.737 23.597,15.515 23.574,15.263C26.529,15.221 29.121,13.092 29.121,10.643C29.121,9.398 28.309,8.457 27.85,7.895C27.953,7.873 28.057,7.849 28.162,7.824C28.595,8.201 29.823,9.539 29.823,11.228C29.823,14.165 26.887,16.892 23.532,16.953M20.555,6.722C20.5,6.395 20.375,6.098 20.185,5.843C20.196,5.544 20.319,5.257 20.801,5.493C20.54,5.76 20.741,6.233 20.741,6.233C20.741,6.233 21.275,5.985 21.164,5.633C21.956,5.822 21.386,6.886 20.555,6.722M19.868,8.231C19.763,7.792 19.537,7.341 19.251,7.001C18.99,6.693 18.559,6.327 17.977,6.327C17.712,6.327 17.267,6.451 16.984,6.571C16.878,6.378 16.672,5.914 16.672,5.705C16.672,5.49 17.036,5.272 17.731,5.272C19.261,5.272 20.175,5.963 20.175,7.123C20.175,7.531 20.013,7.901 19.868,8.231M23.798,27.953C23.976,27.953 24.062,27.981 24.165,28.02C24.606,29.218 26.304,31.48 26.375,31.576L26.39,31.597L26.415,31.591C26.832,31.524 27.895,31.364 28.785,31.364L28.805,31.364C28.902,31.364 29.012,31.364 29.081,31.432C29.139,31.49 29.167,31.591 29.167,31.735C29.167,31.956 29.074,32.334 28.961,32.495C28.65,32.156 28.144,32.003 27.334,32.003C27.091,32.003 26.803,32.076 26.648,32.117L26.584,32.131L26.511,32.15L26.978,32.617C27.699,33.338 28.322,33.959 28.322,34.373C28.322,34.622 28.079,34.947 27.856,35.091C27.807,34.333 27.042,33.318 26.296,32.75L26.233,32.703L26.221,32.97C26.21,33.151 26.194,33.422 26.194,33.713C26.194,35.156 26.047,35.375 25.547,35.375C25.47,35.375 25.353,35.353 25.281,35.326C25.562,34.978 25.674,34.518 25.674,33.711L25.669,33.339L25.665,33.04C25.665,32.709 25.699,32.464 25.725,32.267L25.74,32.156L25.662,32.145C25.427,32.113 24.993,32.054 24.661,32.054C23.947,32.054 23.464,32.119 23.114,32.448C22.883,32.261 22.645,31.939 22.645,31.736C22.645,31.435 22.832,31.411 23.078,31.411C23.203,31.411 23.319,31.429 23.479,31.448C23.786,31.494 24.247,31.563 25.197,31.563L25.257,31.563L25.238,31.505C24.997,30.815 24.336,29.813 23.276,28.524C23.371,28.179 23.464,27.953 23.798,27.953M14.642,31.505L14.623,31.563L14.682,31.563C15.631,31.563 16.094,31.494 16.401,31.448C16.561,31.429 16.677,31.411 16.801,31.411C17.046,31.411 17.234,31.435 17.234,31.736C17.234,31.939 16.997,32.261 16.767,32.448C16.416,32.119 15.932,32.054 15.22,32.054C14.887,32.054 14.451,32.113 14.218,32.145L14.181,32.15L14.139,32.156L14.153,32.267C14.181,32.464 14.215,32.709 14.215,33.04L14.211,33.339L14.206,33.711C14.206,34.518 14.317,34.978 14.601,35.326C14.526,35.353 14.409,35.375 14.332,35.375C13.831,35.375 13.686,35.156 13.686,33.713C13.686,33.422 13.671,33.151 13.66,32.97L13.646,32.702L13.583,32.75C12.839,33.318 12.071,34.333 12.025,35.091C11.801,34.947 11.558,34.622 11.558,34.373C11.558,33.959 12.181,33.338 12.901,32.617L13.368,32.15L13.232,32.117C13.076,32.076 12.789,32.003 12.544,32.003C11.736,32.003 11.231,32.156 10.919,32.495C10.806,32.334 10.712,31.956 10.712,31.735C10.712,31.591 10.741,31.49 10.798,31.432C10.868,31.364 10.978,31.364 11.074,31.364L11.095,31.364C11.985,31.364 13.05,31.524 13.465,31.591L13.49,31.597L13.505,31.576C13.577,31.48 15.274,29.218 15.716,28.02C15.817,27.981 15.904,27.953 16.082,27.953C16.416,27.953 16.509,28.179 16.606,28.524C15.544,29.813 14.882,30.815 14.642,31.505M10.057,11.228C10.057,9.539 11.286,8.201 11.719,7.824C11.823,7.849 11.927,7.873 12.031,7.895C11.571,8.457 10.758,9.398 10.758,10.643C10.758,13.117 13.401,15.264 16.393,15.264C16.374,15.476 16.364,15.699 16.364,15.928C16.364,16.293 16.385,16.633 16.42,16.953C13.036,16.932 10.057,14.186 10.057,11.228M32.754,16.437C34.273,18.838 35.461,18.798 37.255,18.798C35.771,17.66 34.789,16.203 34.32,15.458L31.547,11.021C31.277,9.651 30.569,8.37 29.507,7.416C29.864,7.282 30.161,7.139 30.339,7.004C28.528,7.004 26.734,6.085 25.746,6.085C25.111,6.085 24.704,6.464 24.704,6.966C24.744,7.525 25.319,8.093 26.382,8.093C26.623,8.093 26.931,8.062 27.269,8.005C27.844,8.807 28.309,9.533 28.309,10.568C28.309,12.51 25.986,14.024 23.642,14.024C23.508,14.024 23.382,14.018 23.25,14.009C23.038,13.528 22.331,12.719 22.331,11.8C22.331,10.256 23.338,8.996 23.338,7.467C23.338,6.516 22.875,5.928 22.697,5.683C22.985,5.416 23.299,5.088 23.374,4.863C23.206,4.936 23.007,4.944 22.718,4.944C21.594,4.944 20.678,4.652 19.785,4.652C19.275,4.652 19.138,4.81 19.138,4.959C19.138,5.014 19.146,5.071 19.161,5.097C18.971,5.023 18.793,4.974 18.581,4.936C18.317,4.885 18.034,4.86 17.731,4.86C16.646,4.86 16.26,5.315 16.26,5.705C16.26,6.034 16.52,6.636 16.815,7.096C17.237,6.883 17.746,6.739 17.977,6.739C18.554,6.739 19.066,7.287 19.337,7.937C18.95,7.984 18.876,8.001 18.484,8.001C17.427,8.001 16.708,7.623 16.56,7.623C16.546,7.623 16.518,7.63 16.518,7.654C16.518,7.802 16.818,8.194 17.408,8.409C18.186,8.693 19.352,8.812 19.546,8.845C19.546,8.879 19.349,9.246 19.128,9.318C19.082,9.332 19.045,9.334 18.99,9.322C18.177,9.162 17.951,9.094 16.92,8.702C16.889,8.69 16.869,8.71 16.869,8.742C16.869,9.15 17.925,10.05 18.871,10.396C18.081,11.404 17.095,12.436 16.629,14.009C16.497,14.018 16.37,14.024 16.238,14.024C13.893,14.024 11.571,12.51 11.571,10.568C11.571,9.533 12.035,8.807 12.611,8.005C12.949,8.062 13.256,8.093 13.497,8.093C14.561,8.093 15.136,7.525 15.177,6.966C15.177,6.464 14.77,6.085 14.134,6.085C13.146,6.085 11.353,7.004 9.539,7.004C9.719,7.139 10.015,7.282 10.371,7.416C9.311,8.37 8.602,9.651 8.332,11.021L5.559,15.458C5.092,16.203 4.108,17.66 2.623,18.798C4.417,18.798 5.607,18.838 7.125,16.437L8.547,14.162C8.653,14.457 8.782,14.745 8.934,15.027L6.107,19.551C5.636,20.301 4.661,21.746 3.17,22.891C4.965,22.891 6.154,22.932 7.672,20.533L10.106,16.636C10.288,16.83 10.48,17.02 10.681,17.201L7.247,22.699C6.775,23.451 5.805,24.893 4.312,26.036C6.107,26.036 7.296,26.079 8.813,23.678L12.161,18.317C12.382,18.457 12.608,18.592 12.842,18.719L8.754,25.26C8.282,26.012 7.312,27.449 5.819,28.597C7.613,28.597 8.802,28.638 10.321,26.239L14.529,19.502C14.779,19.597 15.031,19.689 15.287,19.771L10.532,27.382C10.067,28.124 9.075,29.587 7.598,30.719C9.391,30.719 10.582,30.76 12.099,28.361L17.168,20.25C17.219,20.258 17.27,20.266 17.32,20.276C17.458,20.715 17.555,21.124 17.555,21.532C17.555,24.081 15.882,26.332 13.874,28.07C14.003,28.127 14.227,28.146 14.433,28.146C14.848,28.146 15.115,28.124 15.304,28.091C14.838,29.148 13.838,30.514 13.334,31.22C12.677,31.101 11.721,31.01 11.095,31.01C10.44,31.01 10.365,31.392 10.365,31.735C10.365,32.329 10.644,32.802 10.968,33.066C11.089,32.762 11.334,32.356 12.544,32.356C12.568,32.356 12.609,32.359 12.665,32.363C12.313,32.756 11.205,33.652 11.205,34.373C11.205,34.85 11.728,35.567 12.418,35.567C12.378,35.412 12.382,35.271 12.382,35.165C12.382,34.58 12.9,33.897 13.337,33.419C13.324,33.562 13.331,33.547 13.331,33.713C13.331,35.093 13.456,35.728 14.332,35.728C14.762,35.728 15.059,35.492 15.161,35.421C14.592,34.898 14.562,34.485 14.562,33.711C14.564,33.51 14.565,33.313 14.568,33.041C14.569,32.863 14.567,32.629 14.538,32.46C14.851,32.417 14.979,32.417 15.22,32.417C15.22,32.417 16.465,32.317 16.766,32.966C17.104,32.656 17.595,32.218 17.595,31.736C17.595,31.417 17.443,31.057 16.801,31.057C16.558,31.057 15.794,31.205 15.155,31.205C15.327,30.824 16.091,29.706 16.754,28.895C16.855,29.209 17.01,29.549 17.357,29.828C17.406,29.306 17.712,27.655 18.527,26.69C18.622,27.342 18.75,28.011 18.75,29.421C18.75,32.853 17.925,35.387 16.174,35.871C16.402,36.266 16.884,36.624 17.384,36.624C18.025,36.624 18.373,35.899 18.729,35.215C18.914,35.719 19.426,36.956 19.939,36.956C20.452,36.956 20.965,35.719 21.151,35.215C21.505,35.899 21.855,36.624 22.496,36.624C22.995,36.624 23.477,36.266 23.706,35.871C21.954,35.387 21.128,32.853 21.128,29.421C21.128,28.011 21.256,27.342 21.351,26.69C22.168,27.655 22.475,29.306 22.521,29.828C22.869,29.549 23.027,29.209 23.126,28.895C23.787,29.706 24.552,30.824 24.724,31.205C24.085,31.205 23.32,31.057 23.078,31.057C22.438,31.057 22.287,31.417 22.287,31.736C22.287,32.218 22.777,32.656 23.115,32.966C23.414,32.317 24.661,32.417 24.661,32.417C24.901,32.417 25.028,32.417 25.343,32.46C25.313,32.629 25.312,32.863 25.313,33.041C25.316,33.313 25.316,33.51 25.318,33.711C25.318,34.485 25.288,34.898 24.719,35.421C24.821,35.492 25.117,35.728 25.547,35.728C26.424,35.728 26.55,35.093 26.55,33.713C26.55,33.547 26.554,33.562 26.542,33.419C26.98,33.897 27.497,34.58 27.497,35.165C27.497,35.271 27.503,35.412 27.46,35.567C28.151,35.567 28.676,34.85 28.676,34.373C28.676,33.652 27.569,32.756 27.213,32.363C27.271,32.359 27.312,32.356 27.334,32.356C28.546,32.356 28.791,32.762 28.912,33.066C29.235,32.802 29.514,32.329 29.514,31.735C29.514,31.392 29.44,31.01 28.785,31.01C28.159,31.01 27.204,31.101 26.545,31.22C26.04,30.514 25.043,29.148 24.576,28.091C24.764,28.124 25.033,28.146 25.447,28.146C25.654,28.146 25.877,28.127 26.006,28.07C23.998,26.332 22.325,24.081 22.325,21.532C22.325,21.124 22.421,20.715 22.559,20.276C22.608,20.266 22.662,20.258 22.712,20.25L27.781,28.361C29.298,30.76 30.489,30.719 32.281,30.719C30.804,29.587 29.812,28.124 29.348,27.382L24.591,19.771C24.849,19.689 25.103,19.597 25.352,19.502L29.559,26.239C31.077,28.638 32.267,28.597 34.061,28.597C32.568,27.449 31.598,26.012 31.126,25.26L27.039,18.719C27.271,18.592 27.497,18.457 27.717,18.317L31.067,23.678C32.585,26.079 33.773,26.036 35.567,26.036C34.074,24.893 33.106,23.451 32.633,22.699L29.198,17.201C29.4,17.02 29.593,16.83 29.772,16.636L32.209,20.533C33.726,22.932 34.915,22.891 36.709,22.891C35.217,21.746 34.245,20.301 33.773,19.551L30.947,15.027C31.098,14.745 31.227,14.457 31.334,14.162L32.754,16.437Z" style="fill-rule:nonzero;"/>
        <rect x="46.261" y="6.07" width="5.19" height="29.658"/>
        <rect x="46.261" y="35.728" width="5.19" height="29.658" style="fill:rgb(255,0,0);"/>
        <rect x="46.261" y="65.386" width="5.19" height="29.658" style="fill:rgb(255,204,0);"/>
        <g transform="matrix(1.47985,0,0,-1.47985,-31.1868,127.745)">
            <path d="M67.748,80.117C67.748,79.831 67.712,79.581 67.641,79.367C67.569,79.153 67.472,78.968 67.349,78.814C67.226,78.659 67.084,78.534 66.921,78.439C66.758,78.344 66.59,78.272 66.415,78.225L66.415,78.201C66.629,78.161 66.83,78.086 67.016,77.975C67.203,77.864 67.365,77.725 67.504,77.558C67.643,77.391 67.754,77.195 67.837,76.969C67.921,76.743 67.962,76.495 67.962,76.225C67.962,75.9 67.907,75.603 67.796,75.333C67.684,75.063 67.512,74.829 67.278,74.631C67.044,74.432 66.748,74.278 66.391,74.167C66.034,74.056 65.61,74 65.118,74L63.44,74L63.44,82.211L65.023,82.211C65.507,82.211 65.921,82.161 66.266,82.062C66.612,81.963 66.895,81.822 67.117,81.64C67.339,81.457 67.5,81.237 67.599,80.979C67.698,80.722 67.748,80.434 67.748,80.117ZM66.701,80.081C66.701,80.462 66.566,80.775 66.296,81.021C66.026,81.267 65.602,81.39 65.023,81.39L64.475,81.39L64.475,78.558L65.011,78.558C65.566,78.558 65.987,78.693 66.272,78.962C66.558,79.232 66.701,79.605 66.701,80.081ZM66.855,76.297C66.855,76.741 66.711,77.092 66.421,77.35C66.132,77.608 65.717,77.737 65.177,77.737L64.475,77.737L64.475,74.857L65.118,74.857C65.729,74.857 66.171,74.978 66.445,75.22C66.719,75.462 66.855,75.821 66.855,76.297ZM73.234,74L72.353,74L72.353,74.643L72.329,74.643C72.306,74.595 72.254,74.526 72.175,74.434C72.095,74.343 71.994,74.256 71.871,74.173C71.748,74.089 71.6,74.016 71.425,73.952C71.251,73.889 71.056,73.857 70.842,73.857C70.588,73.857 70.36,73.895 70.158,73.97C69.955,74.046 69.783,74.167 69.64,74.333C69.497,74.5 69.388,74.716 69.313,74.982C69.237,75.248 69.2,75.575 69.2,75.964L69.2,79.712L70.164,79.712L70.164,76.035C70.164,75.559 70.241,75.22 70.396,75.017C70.55,74.815 70.79,74.714 71.116,74.714C71.393,74.714 71.627,74.783 71.818,74.922C72.008,75.061 72.159,75.198 72.27,75.333L72.27,79.712L73.234,79.712L73.234,74ZM77.827,74L77.827,77.677C77.827,78.161 77.746,78.508 77.583,78.718C77.421,78.929 77.173,79.034 76.84,79.034C76.554,79.034 76.316,78.962 76.126,78.82C75.935,78.677 75.784,78.538 75.673,78.403L75.673,74L74.709,74L74.709,79.712L75.59,79.712L75.59,79.069L75.614,79.069C75.638,79.117 75.689,79.186 75.769,79.278C75.848,79.369 75.951,79.456 76.078,79.54C76.205,79.623 76.356,79.696 76.53,79.76C76.705,79.823 76.903,79.855 77.125,79.855C77.379,79.855 77.609,79.817 77.815,79.742C78.022,79.666 78.196,79.545 78.339,79.379C78.482,79.212 78.593,78.996 78.672,78.73C78.751,78.465 78.791,78.137 78.791,77.749L78.791,74L77.827,74ZM79.969,76.773C79.969,77.352 80.045,77.836 80.195,78.225C80.346,78.613 80.54,78.927 80.778,79.165C81.016,79.403 81.286,79.571 81.588,79.67C81.889,79.769 82.191,79.819 82.492,79.819C82.675,79.819 82.833,79.805 82.968,79.777C83.103,79.75 83.214,79.716 83.301,79.676L83.301,82.413L84.265,82.52L84.265,74L83.385,74L83.385,74.607L83.361,74.607C83.337,74.559 83.293,74.494 83.23,74.411C83.166,74.327 83.079,74.244 82.968,74.161C82.857,74.077 82.718,74.006 82.552,73.946C82.385,73.887 82.191,73.857 81.968,73.857C81.699,73.857 81.443,73.911 81.201,74.018C80.959,74.125 80.747,74.296 80.564,74.53C80.382,74.764 80.237,75.065 80.13,75.434C80.023,75.803 79.969,76.249 79.969,76.773ZM82.23,74.714C82.381,74.714 82.516,74.734 82.635,74.774C82.754,74.813 82.857,74.863 82.944,74.922C83.031,74.982 83.105,75.043 83.164,75.107C83.224,75.17 83.269,75.226 83.301,75.273L83.301,78.796C83.214,78.851 83.113,78.899 82.998,78.939C82.883,78.978 82.738,78.998 82.563,78.998C82.341,78.998 82.133,78.96 81.939,78.885C81.744,78.81 81.576,78.685 81.433,78.51C81.29,78.336 81.177,78.11 81.094,77.832C81.01,77.554 80.969,77.213 80.969,76.808C80.969,76.412 81.003,76.081 81.07,75.815C81.137,75.549 81.231,75.335 81.35,75.172C81.469,75.01 81.604,74.893 81.754,74.821C81.905,74.75 82.064,74.714 82.23,74.714ZM89.406,77.784C89.406,77.538 89.398,77.326 89.382,77.148C89.366,76.969 89.35,76.812 89.335,76.678L86.419,76.678C86.451,76.003 86.596,75.507 86.853,75.19C87.111,74.873 87.482,74.714 87.966,74.714C88.133,74.714 88.283,74.734 88.418,74.774C88.553,74.813 88.67,74.861 88.769,74.916C88.868,74.972 88.952,75.027 89.019,75.083C89.087,75.138 89.136,75.182 89.168,75.214L89.525,74.536C89.485,74.496 89.426,74.438 89.346,74.363C89.267,74.288 89.16,74.212 89.025,74.137C88.89,74.062 88.724,73.996 88.525,73.941C88.327,73.885 88.093,73.857 87.823,73.857C87.466,73.857 87.143,73.917 86.853,74.036C86.564,74.155 86.318,74.339 86.116,74.589C85.913,74.839 85.757,75.156 85.646,75.541C85.534,75.926 85.479,76.388 85.479,76.927C85.479,77.435 85.536,77.874 85.652,78.242C85.766,78.611 85.923,78.915 86.122,79.153C86.32,79.391 86.55,79.567 86.812,79.682C87.074,79.797 87.355,79.855 87.657,79.855C88.204,79.855 88.632,79.682 88.942,79.337C89.251,78.992 89.406,78.474 89.406,77.784ZM87.597,79.069C87.256,79.069 86.982,78.927 86.776,78.641C86.57,78.355 86.451,77.943 86.419,77.403L88.501,77.403C88.509,77.443 88.515,77.501 88.519,77.576C88.523,77.651 88.525,77.733 88.525,77.82C88.525,78.217 88.446,78.524 88.287,78.742C88.129,78.96 87.899,79.069 87.597,79.069ZM93.154,78.558C93.091,78.629 92.976,78.726 92.809,78.849C92.643,78.972 92.425,79.034 92.155,79.034C91.901,79.034 91.707,78.974 91.572,78.855C91.437,78.736 91.369,78.593 91.369,78.427C91.369,78.213 91.431,78.036 91.554,77.897C91.677,77.758 91.865,77.61 92.119,77.451L92.476,77.237C92.865,77.007 93.17,76.759 93.392,76.493C93.615,76.227 93.726,75.884 93.726,75.464C93.726,75.012 93.569,74.631 93.256,74.321C92.942,74.012 92.492,73.857 91.905,73.857C91.675,73.857 91.473,73.881 91.298,73.929C91.124,73.976 90.971,74.032 90.84,74.095C90.709,74.159 90.6,74.228 90.513,74.303C90.425,74.379 90.354,74.448 90.298,74.512L90.763,75.273C90.81,75.226 90.868,75.17 90.935,75.107C91.003,75.043 91.084,74.982 91.179,74.922C91.274,74.863 91.381,74.813 91.5,74.774C91.619,74.734 91.758,74.714 91.917,74.714C92.202,74.714 92.421,74.778 92.571,74.904C92.722,75.031 92.797,75.186 92.797,75.369C92.797,75.503 92.78,75.62 92.744,75.72C92.708,75.819 92.655,75.908 92.583,75.987C92.512,76.067 92.425,76.142 92.321,76.213C92.218,76.285 92.099,76.364 91.964,76.451L91.607,76.678C91.25,76.908 90.971,77.15 90.769,77.403C90.566,77.657 90.465,77.983 90.465,78.379C90.465,78.593 90.507,78.79 90.59,78.968C90.673,79.147 90.79,79.301 90.941,79.432C91.092,79.563 91.268,79.666 91.471,79.742C91.673,79.817 91.889,79.855 92.119,79.855C92.341,79.855 92.532,79.833 92.69,79.789C92.849,79.746 92.986,79.69 93.101,79.623C93.216,79.555 93.311,79.488 93.387,79.421C93.462,79.353 93.523,79.296 93.571,79.248L93.154,78.558ZM97.855,74L97.855,77.677C97.855,78.145 97.787,78.482 97.653,78.689C97.518,78.895 97.3,78.998 96.998,78.998C96.839,78.998 96.699,78.978 96.576,78.939C96.453,78.899 96.344,78.849 96.248,78.79C96.153,78.73 96.07,78.665 95.999,78.593C95.927,78.522 95.868,78.459 95.82,78.403L95.82,74L94.856,74L94.856,79.712L95.737,79.712L95.737,79.069L95.76,79.069C95.8,79.133 95.86,79.21 95.939,79.301C96.018,79.393 96.118,79.48 96.237,79.563C96.356,79.647 96.494,79.716 96.653,79.772C96.812,79.827 96.99,79.855 97.189,79.855C97.839,79.855 98.299,79.601 98.569,79.093C98.624,79.173 98.7,79.258 98.795,79.349C98.89,79.44 99.001,79.524 99.128,79.599C99.255,79.674 99.398,79.736 99.557,79.783C99.715,79.831 99.89,79.855 100.08,79.855C101.239,79.855 101.818,79.181 101.818,77.832L101.818,74L100.854,74L100.854,77.677C100.854,78.145 100.77,78.482 100.604,78.689C100.437,78.895 100.191,78.998 99.866,78.998C99.596,78.998 99.372,78.933 99.194,78.802C99.015,78.671 98.874,78.546 98.771,78.427C98.787,78.34 98.799,78.246 98.807,78.147C98.815,78.048 98.819,77.943 98.819,77.832L98.819,74L97.855,74ZM104.221,74L103.257,74L103.257,79.712L104.221,79.712L104.221,74ZM103.745,81.092C103.547,81.092 103.388,81.156 103.269,81.283C103.15,81.41 103.091,81.576 103.091,81.783C103.091,81.981 103.15,82.144 103.269,82.271C103.388,82.397 103.547,82.461 103.745,82.461C103.936,82.461 104.091,82.397 104.21,82.271C104.329,82.144 104.388,81.981 104.388,81.783C104.388,81.576 104.329,81.41 104.21,81.283C104.091,81.156 103.936,81.092 103.745,81.092ZM108.815,74L108.815,77.677C108.815,78.161 108.734,78.508 108.571,78.718C108.408,78.929 108.16,79.034 107.827,79.034C107.542,79.034 107.304,78.962 107.113,78.82C106.923,78.677 106.772,78.538 106.661,78.403L106.661,74L105.697,74L105.697,79.712L106.578,79.712L106.578,79.069L106.601,79.069C106.625,79.117 106.677,79.186 106.756,79.278C106.835,79.369 106.939,79.456 107.066,79.54C107.192,79.623 107.343,79.696 107.518,79.76C107.692,79.823 107.891,79.855 108.113,79.855C108.367,79.855 108.597,79.817 108.803,79.742C109.009,79.666 109.184,79.545 109.327,79.379C109.469,79.212 109.58,78.996 109.66,78.73C109.739,78.465 109.779,78.137 109.779,77.749L109.779,74L108.815,74ZM112.183,74L111.219,74L111.219,79.712L112.183,79.712L112.183,74ZM111.707,81.092C111.508,81.092 111.35,81.156 111.231,81.283C111.112,81.41 111.052,81.576 111.052,81.783C111.052,81.981 111.112,82.144 111.231,82.271C111.35,82.397 111.508,82.461 111.707,82.461C111.897,82.461 112.052,82.397 112.171,82.271C112.29,82.144 112.349,81.981 112.349,81.783C112.349,81.576 112.29,81.41 112.171,81.283C112.052,81.156 111.897,81.092 111.707,81.092ZM116.121,78.558C116.058,78.629 115.943,78.726 115.776,78.849C115.61,78.972 115.391,79.034 115.122,79.034C114.868,79.034 114.674,78.974 114.539,78.855C114.404,78.736 114.336,78.593 114.336,78.427C114.336,78.213 114.398,78.036 114.521,77.897C114.644,77.758 114.832,77.61 115.086,77.451L115.443,77.237C115.832,77.007 116.137,76.759 116.359,76.493C116.582,76.227 116.693,75.884 116.693,75.464C116.693,75.012 116.536,74.631 116.223,74.321C115.909,74.012 115.459,73.857 114.872,73.857C114.642,73.857 114.44,73.881 114.265,73.929C114.091,73.976 113.938,74.032 113.807,74.095C113.676,74.159 113.567,74.228 113.48,74.303C113.392,74.379 113.321,74.448 113.265,74.512L113.73,75.273C113.777,75.226 113.835,75.17 113.902,75.107C113.97,75.043 114.051,74.982 114.146,74.922C114.241,74.863 114.348,74.813 114.467,74.774C114.586,74.734 114.725,74.714 114.884,74.714C115.169,74.714 115.388,74.778 115.538,74.904C115.689,75.031 115.764,75.186 115.764,75.369C115.764,75.503 115.747,75.62 115.711,75.72C115.675,75.819 115.622,75.908 115.55,75.987C115.479,76.067 115.391,76.142 115.288,76.213C115.185,76.285 115.066,76.364 114.931,76.451L114.574,76.678C114.217,76.908 113.938,77.15 113.736,77.403C113.533,77.657 113.432,77.983 113.432,78.379C113.432,78.593 113.474,78.79 113.557,78.968C113.64,79.147 113.757,79.301 113.908,79.432C114.059,79.563 114.235,79.666 114.438,79.742C114.64,79.817 114.856,79.855 115.086,79.855C115.308,79.855 115.499,79.833 115.657,79.789C115.816,79.746 115.953,79.69 116.068,79.623C116.183,79.555 116.278,79.488 116.354,79.421C116.429,79.353 116.49,79.296 116.538,79.248L116.121,78.558ZM120.263,78.927L119.013,78.927L119.013,75.761C119.013,75.357 119.065,75.081 119.168,74.934C119.271,74.787 119.446,74.714 119.691,74.714C119.834,74.714 119.957,74.734 120.06,74.774C120.163,74.813 120.239,74.849 120.286,74.881L120.417,74.107C120.378,74.075 120.282,74.026 120.132,73.958C119.981,73.891 119.779,73.857 119.525,73.857C119.033,73.857 118.664,73.994 118.418,74.268C118.172,74.541 118.049,74.996 118.049,75.63L118.049,78.927L117.359,78.927L117.359,79.569L118.049,79.712L118.156,81.307L119.013,81.307L119.013,79.712L120.382,79.712L120.263,78.927ZM124.939,77.784C124.939,77.538 124.931,77.326 124.915,77.148C124.9,76.969 124.884,76.812 124.868,76.678L121.952,76.678C121.984,76.003 122.129,75.507 122.387,75.19C122.645,74.873 123.016,74.714 123.499,74.714C123.666,74.714 123.817,74.734 123.952,74.774C124.087,74.813 124.204,74.861 124.303,74.916C124.402,74.972 124.485,75.027 124.553,75.083C124.62,75.138 124.67,75.182 124.701,75.214L125.058,74.536C125.019,74.496 124.959,74.438 124.88,74.363C124.801,74.288 124.693,74.212 124.558,74.137C124.424,74.062 124.257,73.996 124.059,73.941C123.86,73.885 123.626,73.857 123.357,73.857C123,73.857 122.676,73.917 122.387,74.036C122.097,74.155 121.851,74.339 121.649,74.589C121.447,74.839 121.29,75.156 121.179,75.541C121.068,75.926 121.012,76.388 121.012,76.927C121.012,77.435 121.07,77.874 121.185,78.242C121.3,78.611 121.457,78.915 121.655,79.153C121.853,79.391 122.083,79.567 122.345,79.682C122.607,79.797 122.888,79.855 123.19,79.855C123.737,79.855 124.166,79.682 124.475,79.337C124.785,78.992 124.939,78.474 124.939,77.784ZM123.131,79.069C122.789,79.069 122.516,78.927 122.309,78.641C122.103,78.355 121.984,77.943 121.952,77.403L124.035,77.403C124.043,77.443 124.049,77.501 124.053,77.576C124.057,77.651 124.059,77.733 124.059,77.82C124.059,78.217 123.979,78.524 123.821,78.742C123.662,78.96 123.432,79.069 123.131,79.069ZM128.735,78.867C128.712,78.883 128.66,78.903 128.581,78.927C128.501,78.95 128.394,78.962 128.259,78.962C127.958,78.962 127.722,78.881 127.551,78.718C127.381,78.556 127.26,78.379 127.188,78.189L127.188,74L126.225,74L126.225,79.712L127.105,79.712L127.105,78.939L127.129,78.939C127.169,79.05 127.22,79.159 127.284,79.266C127.347,79.373 127.426,79.468 127.522,79.551C127.617,79.635 127.73,79.7 127.861,79.748C127.992,79.795 128.148,79.819 128.331,79.819C128.466,79.819 128.575,79.807 128.658,79.783C128.741,79.76 128.807,79.74 128.854,79.724L128.735,78.867ZM130.651,74L129.687,74L129.687,79.712L130.651,79.712L130.651,74ZM130.175,81.092C129.977,81.092 129.818,81.156 129.699,81.283C129.58,81.41 129.521,81.576 129.521,81.783C129.521,81.981 129.58,82.144 129.699,82.271C129.818,82.397 129.977,82.461 130.175,82.461C130.366,82.461 130.52,82.397 130.639,82.271C130.758,82.144 130.818,81.981 130.818,81.783C130.818,81.576 130.758,81.41 130.639,81.283C130.52,81.156 130.366,81.092 130.175,81.092ZM136.125,74L135.245,74L135.245,74.643L135.221,74.643C135.197,74.595 135.146,74.526 135.066,74.434C134.987,74.343 134.886,74.256 134.763,74.173C134.64,74.089 134.491,74.016 134.317,73.952C134.142,73.889 133.948,73.857 133.733,73.857C133.48,73.857 133.252,73.895 133.049,73.97C132.847,74.046 132.674,74.167 132.532,74.333C132.389,74.5 132.28,74.716 132.204,74.982C132.129,75.248 132.091,75.575 132.091,75.964L132.091,79.712L133.055,79.712L133.055,76.035C133.055,75.559 133.133,75.22 133.287,75.017C133.442,74.815 133.682,74.714 134.007,74.714C134.285,74.714 134.519,74.783 134.709,74.922C134.9,75.061 135.05,75.198 135.161,75.333L135.161,79.712L136.125,79.712L136.125,74ZM140.6,74L140.6,77.677C140.6,78.145 140.532,78.482 140.397,78.689C140.263,78.895 140.044,78.998 139.743,78.998C139.584,78.998 139.443,78.978 139.321,78.939C139.198,78.899 139.088,78.849 138.993,78.79C138.898,78.73 138.815,78.665 138.743,78.593C138.672,78.522 138.612,78.459 138.565,78.403L138.565,74L137.601,74L137.601,79.712L138.482,79.712L138.482,79.069L138.505,79.069C138.545,79.133 138.605,79.21 138.684,79.301C138.763,79.393 138.862,79.48 138.981,79.563C139.1,79.647 139.239,79.716 139.398,79.772C139.557,79.827 139.735,79.855 139.933,79.855C140.584,79.855 141.044,79.601 141.314,79.093C141.369,79.173 141.445,79.258 141.54,79.349C141.635,79.44 141.746,79.524 141.873,79.599C142,79.674 142.143,79.736 142.301,79.783C142.46,79.831 142.635,79.855 142.825,79.855C143.983,79.855 144.562,79.181 144.562,77.832L144.562,74L143.599,74L143.599,77.677C143.599,78.145 143.515,78.482 143.349,78.689C143.182,78.895 142.936,78.998 142.611,78.998C142.341,78.998 142.117,78.933 141.939,78.802C141.76,78.671 141.619,78.546 141.516,78.427C141.532,78.34 141.544,78.246 141.552,78.147C141.56,78.048 141.564,77.943 141.564,77.832L141.564,74L140.6,74ZM65.642,66.927L64.475,66.927L64.475,62L63.512,62L63.512,66.927L62.821,66.927L62.821,67.569L63.512,67.7L63.512,68.843C63.512,69.152 63.555,69.418 63.642,69.64C63.73,69.862 63.845,70.044 63.987,70.187C64.13,70.33 64.297,70.433 64.487,70.497C64.678,70.56 64.88,70.592 65.094,70.592C65.301,70.592 65.475,70.564 65.618,70.509C65.761,70.453 65.856,70.409 65.903,70.378L65.701,69.58C65.653,69.612 65.586,69.646 65.499,69.682C65.412,69.717 65.304,69.735 65.177,69.735C64.947,69.735 64.773,69.664 64.654,69.521C64.535,69.378 64.475,69.116 64.475,68.735L64.475,67.712L65.761,67.712L65.642,66.927ZM70.592,62L69.711,62L69.711,62.643L69.688,62.643C69.664,62.595 69.612,62.526 69.533,62.434C69.454,62.343 69.352,62.256 69.23,62.173C69.107,62.089 68.958,62.016 68.783,61.952C68.609,61.889 68.414,61.857 68.2,61.857C67.946,61.857 67.718,61.895 67.516,61.97C67.314,62.046 67.141,62.167 66.998,62.333C66.855,62.5 66.746,62.716 66.671,62.982C66.596,63.248 66.558,63.575 66.558,63.964L66.558,67.712L67.522,67.712L67.522,64.035C67.522,63.559 67.599,63.22 67.754,63.017C67.909,62.815 68.149,62.714 68.474,62.714C68.751,62.714 68.986,62.783 69.176,62.922C69.366,63.061 69.517,63.198 69.628,63.333L69.628,67.712L70.592,67.712L70.592,62ZM68.224,69.354C68.224,69.172 68.168,69.025 68.057,68.914C67.946,68.803 67.811,68.747 67.653,68.747C67.494,68.747 67.359,68.803 67.248,68.914C67.137,69.025 67.082,69.172 67.082,69.354C67.082,69.537 67.137,69.683 67.248,69.795C67.359,69.906 67.494,69.961 67.653,69.961C67.811,69.961 67.946,69.906 68.057,69.795C68.168,69.683 68.224,69.537 68.224,69.354ZM70.057,69.354C70.057,69.172 70.001,69.025 69.89,68.914C69.779,68.803 69.644,68.747 69.485,68.747C69.327,68.747 69.192,68.803 69.081,68.914C68.97,69.025 68.914,69.172 68.914,69.354C68.914,69.537 68.97,69.683 69.081,69.795C69.192,69.906 69.327,69.961 69.485,69.961C69.644,69.961 69.779,69.906 69.89,69.795C70.001,69.683 70.057,69.537 70.057,69.354ZM74.579,66.867C74.555,66.883 74.503,66.903 74.424,66.927C74.345,66.95 74.237,66.962 74.103,66.962C73.801,66.962 73.565,66.881 73.394,66.718C73.224,66.556 73.103,66.379 73.031,66.189L73.031,62L72.068,62L72.068,67.712L72.948,67.712L72.948,66.939L72.972,66.939C73.012,67.05 73.063,67.159 73.127,67.266C73.19,67.373 73.269,67.468 73.365,67.551C73.46,67.635 73.573,67.7 73.704,67.748C73.835,67.795 73.991,67.819 74.174,67.819C74.309,67.819 74.418,67.807 74.501,67.783C74.585,67.76 74.65,67.74 74.698,67.724L74.579,66.867ZM86.003,70.211L84.003,62L83.075,62L81.826,67.165C81.738,67.522 81.663,67.855 81.6,68.164C81.536,68.474 81.5,68.72 81.492,68.902L81.469,68.902C81.469,68.72 81.437,68.478 81.373,68.176C81.31,67.875 81.235,67.545 81.147,67.188L79.874,62L78.946,62L76.994,70.211L78.101,70.211L79.124,65.213C79.204,64.832 79.273,64.473 79.333,64.136C79.392,63.799 79.426,63.539 79.434,63.357L79.458,63.357C79.465,63.539 79.507,63.805 79.583,64.154C79.658,64.503 79.739,64.864 79.826,65.237L81.04,70.211L82.028,70.211L83.218,65.213C83.305,64.832 83.385,64.473 83.456,64.136C83.527,63.799 83.567,63.539 83.575,63.357L83.599,63.357C83.607,63.539 83.642,63.807 83.706,64.16C83.769,64.513 83.841,64.88 83.92,65.261L84.955,70.211L86.003,70.211ZM86.324,64.856C86.324,65.38 86.385,65.832 86.508,66.213C86.631,66.593 86.798,66.905 87.008,67.147C87.218,67.389 87.46,67.567 87.734,67.682C88.008,67.797 88.299,67.855 88.609,67.855C88.926,67.855 89.22,67.797 89.489,67.682C89.759,67.567 89.993,67.389 90.191,67.147C90.39,66.905 90.546,66.593 90.661,66.213C90.776,65.832 90.834,65.38 90.834,64.856C90.834,64.325 90.774,63.868 90.655,63.487C90.536,63.107 90.372,62.795 90.162,62.553C89.951,62.311 89.707,62.135 89.43,62.024C89.152,61.913 88.859,61.857 88.549,61.857C88.232,61.857 87.938,61.913 87.668,62.024C87.399,62.135 87.165,62.311 86.966,62.553C86.768,62.795 86.611,63.105 86.496,63.482C86.381,63.858 86.324,64.317 86.324,64.856ZM89.834,64.856C89.834,65.618 89.723,66.171 89.501,66.516C89.279,66.861 88.97,67.034 88.573,67.034C88.176,67.034 87.869,66.861 87.651,66.516C87.433,66.171 87.323,65.618 87.323,64.856C87.323,64.094 87.435,63.547 87.657,63.214C87.879,62.881 88.188,62.714 88.585,62.714C88.982,62.714 89.289,62.881 89.507,63.214C89.725,63.547 89.834,64.094 89.834,64.856ZM95.165,62L95.165,65.677C95.165,66.161 95.084,66.508 94.922,66.718C94.759,66.929 94.511,67.034 94.178,67.034C93.892,67.034 93.654,66.962 93.464,66.82C93.273,66.677 93.123,66.538 93.012,66.403L93.012,62L92.048,62L92.048,70.413L93.012,70.52L93.012,67.129L93.035,67.129C93.067,67.177 93.117,67.24 93.184,67.319C93.252,67.399 93.345,67.478 93.464,67.557C93.583,67.637 93.728,67.706 93.898,67.766C94.069,67.825 94.269,67.855 94.499,67.855C94.999,67.855 95.396,67.692 95.689,67.367C95.983,67.042 96.129,66.502 96.129,65.749L96.129,62L95.165,62ZM100.687,62L100.687,65.677C100.687,66.161 100.606,66.508 100.443,66.718C100.281,66.929 100.033,67.034 99.699,67.034C99.414,67.034 99.176,66.962 98.985,66.82C98.795,66.677 98.644,66.538 98.533,66.403L98.533,62L97.569,62L97.569,67.712L98.45,67.712L98.45,67.069L98.474,67.069C98.498,67.117 98.549,67.186 98.628,67.278C98.708,67.369 98.811,67.456 98.938,67.54C99.065,67.623 99.216,67.696 99.39,67.76C99.565,67.823 99.763,67.855 99.985,67.855C100.239,67.855 100.469,67.817 100.675,67.742C100.882,67.666 101.056,67.545 101.199,67.379C101.342,67.212 101.453,66.996 101.532,66.73C101.611,66.465 101.651,66.137 101.651,65.749L101.651,62L100.687,62ZM106.756,65.784C106.756,65.538 106.748,65.326 106.732,65.148C106.716,64.969 106.701,64.812 106.685,64.677L103.769,64.677C103.801,64.003 103.946,63.507 104.204,63.19C104.461,62.873 104.832,62.714 105.316,62.714C105.483,62.714 105.634,62.734 105.768,62.774C105.903,62.813 106.02,62.861 106.12,62.916C106.219,62.972 106.302,63.027 106.369,63.083C106.437,63.138 106.486,63.182 106.518,63.214L106.875,62.536C106.835,62.496 106.776,62.438 106.697,62.363C106.617,62.288 106.51,62.212 106.375,62.137C106.24,62.062 106.074,61.996 105.876,61.941C105.677,61.885 105.443,61.857 105.173,61.857C104.816,61.857 104.493,61.917 104.204,62.036C103.914,62.155 103.668,62.339 103.466,62.589C103.263,62.839 103.107,63.156 102.996,63.541C102.885,63.926 102.829,64.388 102.829,64.927C102.829,65.435 102.887,65.874 103.002,66.242C103.117,66.611 103.273,66.915 103.472,67.153C103.67,67.391 103.9,67.567 104.162,67.682C104.424,67.797 104.705,67.855 105.007,67.855C105.554,67.855 105.983,67.682 106.292,67.337C106.601,66.992 106.756,66.474 106.756,65.784ZM104.947,67.069C104.606,67.069 104.333,66.927 104.126,66.641C103.92,66.355 103.801,65.943 103.769,65.403L105.852,65.403C105.86,65.443 105.866,65.501 105.87,65.576C105.874,65.651 105.876,65.733 105.876,65.82C105.876,66.217 105.796,66.524 105.638,66.742C105.479,66.96 105.249,67.069 104.947,67.069ZM111.159,62L111.159,65.677C111.159,66.161 111.078,66.508 110.915,66.718C110.753,66.929 110.505,67.034 110.171,67.034C109.886,67.034 109.648,66.962 109.457,66.82C109.267,66.677 109.116,66.538 109.005,66.403L109.005,62L108.041,62L108.041,67.712L108.922,67.712L108.922,67.069L108.946,67.069C108.97,67.117 109.021,67.186 109.1,67.278C109.18,67.369 109.283,67.456 109.41,67.54C109.537,67.623 109.688,67.696 109.862,67.76C110.037,67.823 110.235,67.855 110.457,67.855C110.711,67.855 110.941,67.817 111.147,67.742C111.354,67.666 111.528,67.545 111.671,67.379C111.814,67.212 111.925,66.996 112.004,66.73C112.083,66.465 112.123,66.137 112.123,65.749L112.123,62L111.159,62ZM113.408,62.678C113.408,62.893 113.47,63.053 113.593,63.16C113.716,63.267 113.86,63.321 114.027,63.321C114.257,63.321 114.446,63.226 114.592,63.035C114.739,62.845 114.812,62.551 114.812,62.155C114.812,61.885 114.771,61.649 114.688,61.447C114.604,61.244 114.495,61.07 114.36,60.923C114.225,60.776 114.077,60.655 113.914,60.56C113.751,60.465 113.591,60.39 113.432,60.334L113.23,60.751C113.476,60.877 113.678,61.03 113.837,61.209C113.995,61.387 114.083,61.651 114.098,62L114.063,62C113.88,62 113.726,62.057 113.599,62.173C113.472,62.288 113.408,62.456 113.408,62.678ZM121.655,68.95C121.623,68.981 121.57,69.027 121.494,69.087C121.419,69.146 121.324,69.204 121.209,69.259C121.094,69.315 120.959,69.362 120.804,69.402C120.649,69.442 120.477,69.461 120.286,69.461C119.929,69.461 119.66,69.366 119.477,69.176C119.295,68.985 119.204,68.763 119.204,68.509C119.204,68.351 119.225,68.204 119.269,68.069C119.313,67.934 119.38,67.801 119.471,67.67C119.563,67.54 119.676,67.409 119.81,67.278C119.945,67.147 120.108,67.006 120.298,66.855L120.965,66.308C121.155,66.149 121.336,65.987 121.506,65.82C121.677,65.653 121.824,65.477 121.947,65.29C122.069,65.104 122.167,64.902 122.238,64.683C122.309,64.465 122.345,64.221 122.345,63.952C122.345,63.325 122.151,62.819 121.762,62.434C121.373,62.05 120.806,61.857 120.06,61.857C119.767,61.857 119.507,61.885 119.281,61.941C119.055,61.996 118.858,62.064 118.692,62.143C118.525,62.222 118.386,62.303 118.275,62.387C118.164,62.47 118.081,62.539 118.025,62.595L118.442,63.499C118.49,63.452 118.561,63.388 118.656,63.309C118.751,63.23 118.866,63.15 119.001,63.071C119.136,62.992 119.289,62.924 119.459,62.869C119.63,62.813 119.822,62.785 120.037,62.785C120.441,62.785 120.753,62.887 120.971,63.089C121.189,63.291 121.298,63.531 121.298,63.809C121.298,63.983 121.276,64.142 121.233,64.285C121.189,64.428 121.125,64.564 121.042,64.695C120.959,64.826 120.854,64.955 120.727,65.082C120.6,65.209 120.449,65.344 120.275,65.487L119.608,66.046C119.378,66.236 119.176,66.417 119.001,66.588C118.827,66.758 118.678,66.937 118.555,67.123C118.432,67.309 118.339,67.512 118.275,67.73C118.212,67.948 118.18,68.2 118.18,68.486C118.18,68.747 118.23,68.993 118.329,69.223C118.428,69.453 118.569,69.652 118.751,69.818C118.934,69.985 119.154,70.116 119.412,70.211C119.67,70.306 119.961,70.354 120.286,70.354C120.556,70.354 120.794,70.328 121,70.277C121.207,70.225 121.383,70.165 121.53,70.098C121.677,70.031 121.794,69.961 121.881,69.89C121.968,69.818 122.036,69.767 122.083,69.735L121.655,68.95ZM125.844,66.927L124.594,66.927L124.594,63.761C124.594,63.357 124.646,63.081 124.749,62.934C124.852,62.787 125.027,62.714 125.272,62.714C125.415,62.714 125.538,62.734 125.641,62.774C125.745,62.813 125.82,62.849 125.868,62.881L125.998,62.107C125.959,62.075 125.864,62.026 125.713,61.958C125.562,61.891 125.36,61.857 125.106,61.857C124.614,61.857 124.245,61.994 123.999,62.268C123.753,62.541 123.63,62.996 123.63,63.63L123.63,66.927L122.94,66.927L122.94,67.569L123.63,67.712L123.737,69.307L124.594,69.307L124.594,67.712L125.963,67.712L125.844,66.927ZM126.605,63.452C126.605,63.785 126.669,64.063 126.796,64.285C126.923,64.507 127.093,64.687 127.307,64.826C127.522,64.965 127.774,65.064 128.063,65.124C128.353,65.183 128.66,65.213 128.985,65.213L129.283,65.213L129.283,65.76C129.283,66.244 129.197,66.578 129.027,66.76C128.856,66.943 128.616,67.034 128.307,67.034C128.021,67.034 127.783,66.972 127.593,66.849C127.403,66.726 127.252,66.617 127.141,66.522L126.736,67.165C126.8,67.228 126.881,67.3 126.98,67.379C127.079,67.458 127.2,67.534 127.343,67.605C127.486,67.676 127.649,67.736 127.831,67.783C128.013,67.831 128.22,67.855 128.45,67.855C129.037,67.855 129.481,67.692 129.783,67.367C130.084,67.042 130.235,66.518 130.235,65.796L130.235,63.19C130.235,62.944 130.243,62.704 130.259,62.47C130.274,62.236 130.29,62.079 130.306,62L129.39,62L129.354,62.631L129.33,62.631C129.299,62.559 129.251,62.478 129.188,62.387C129.124,62.295 129.045,62.212 128.95,62.137C128.854,62.062 128.739,61.996 128.605,61.941C128.47,61.885 128.311,61.857 128.129,61.857C127.914,61.857 127.714,61.897 127.528,61.976C127.341,62.056 127.179,62.167 127.04,62.309C126.901,62.452 126.794,62.621 126.718,62.815C126.643,63.01 126.605,63.222 126.605,63.452ZM128.331,62.678C128.466,62.678 128.585,62.698 128.688,62.738C128.791,62.778 128.88,62.825 128.956,62.881C129.031,62.936 129.094,62.998 129.146,63.065C129.197,63.133 129.243,63.19 129.283,63.238L129.283,64.499L128.973,64.487C128.513,64.471 128.164,64.392 127.926,64.249C127.688,64.106 127.569,63.876 127.569,63.559C127.569,63.265 127.637,63.045 127.772,62.899C127.906,62.752 128.093,62.678 128.331,62.678ZM131.425,64.773C131.425,65.352 131.5,65.836 131.651,66.225C131.802,66.613 131.996,66.927 132.234,67.165C132.472,67.403 132.742,67.571 133.043,67.67C133.345,67.769 133.646,67.819 133.948,67.819C134.13,67.819 134.289,67.805 134.424,67.777C134.559,67.75 134.67,67.716 134.757,67.676L134.757,70.413L135.721,70.52L135.721,62L134.84,62L134.84,62.607L134.816,62.607C134.793,62.559 134.749,62.494 134.685,62.411C134.622,62.327 134.535,62.244 134.424,62.161C134.313,62.077 134.174,62.006 134.007,61.946C133.841,61.887 133.646,61.857 133.424,61.857C133.154,61.857 132.898,61.911 132.657,62.018C132.415,62.125 132.202,62.295 132.02,62.53C131.837,62.764 131.693,63.065 131.586,63.434C131.478,63.803 131.425,64.249 131.425,64.773ZM133.686,62.714C133.837,62.714 133.971,62.734 134.09,62.774C134.209,62.813 134.313,62.863 134.4,62.922C134.487,62.982 134.561,63.043 134.62,63.107C134.68,63.17 134.725,63.226 134.757,63.273L134.757,66.796C134.67,66.851 134.568,66.899 134.453,66.939C134.338,66.978 134.194,66.998 134.019,66.998C133.797,66.998 133.589,66.96 133.394,66.885C133.2,66.81 133.031,66.685 132.889,66.51C132.746,66.336 132.633,66.11 132.549,65.832C132.466,65.554 132.424,65.213 132.424,64.808C132.424,64.412 132.458,64.081 132.526,63.815C132.593,63.549 132.686,63.335 132.805,63.172C132.924,63.01 133.059,62.893 133.21,62.821C133.361,62.75 133.519,62.714 133.686,62.714ZM139.636,66.927L138.386,66.927L138.386,63.761C138.386,63.357 138.438,63.081 138.541,62.934C138.644,62.787 138.819,62.714 139.065,62.714C139.207,62.714 139.33,62.734 139.434,62.774C139.537,62.813 139.612,62.849 139.66,62.881L139.791,62.107C139.751,62.075 139.656,62.026 139.505,61.958C139.354,61.891 139.152,61.857 138.898,61.857C138.406,61.857 138.037,61.994 137.791,62.268C137.545,62.541 137.422,62.996 137.422,63.63L137.422,66.927L136.732,66.927L136.732,67.569L137.422,67.712L137.53,69.307L138.386,69.307L138.386,67.712L139.755,67.712L139.636,66.927ZM144.313,65.784C144.313,65.538 144.305,65.326 144.289,65.148C144.273,64.969 144.257,64.812 144.241,64.677L141.326,64.677C141.357,64.003 141.502,63.507 141.76,63.19C142.018,62.873 142.389,62.714 142.873,62.714C143.039,62.714 143.19,62.734 143.325,62.774C143.46,62.813 143.577,62.861 143.676,62.916C143.775,62.972 143.858,63.027 143.926,63.083C143.993,63.138 144.043,63.182 144.075,63.214L144.432,62.536C144.392,62.496 144.332,62.438 144.253,62.363C144.174,62.288 144.067,62.212 143.932,62.137C143.797,62.062 143.63,61.996 143.432,61.941C143.234,61.885 143,61.857 142.73,61.857C142.373,61.857 142.05,61.917 141.76,62.036C141.47,62.155 141.225,62.339 141.022,62.589C140.82,62.839 140.663,63.156 140.552,63.541C140.441,63.926 140.386,64.388 140.386,64.927C140.386,65.435 140.443,65.874 140.558,66.242C140.673,66.611 140.83,66.915 141.028,67.153C141.226,67.391 141.457,67.567 141.718,67.682C141.98,67.797 142.262,67.855 142.563,67.855C143.111,67.855 143.539,67.682 143.848,67.337C144.158,66.992 144.313,66.474 144.313,65.784ZM142.504,67.069C142.163,67.069 141.889,66.927 141.683,66.641C141.476,66.355 141.357,65.943 141.326,65.403L143.408,65.403C143.416,65.443 143.422,65.501 143.426,65.576C143.43,65.651 143.432,65.733 143.432,65.82C143.432,66.217 143.353,66.524 143.194,66.742C143.035,66.96 142.805,67.069 142.504,67.069ZM148.716,62L148.716,65.677C148.716,66.161 148.634,66.508 148.472,66.718C148.309,66.929 148.061,67.034 147.728,67.034C147.442,67.034 147.204,66.962 147.014,66.82C146.823,66.677 146.673,66.538 146.562,66.403L146.562,62L145.598,62L145.598,67.712L146.478,67.712L146.478,67.069L146.502,67.069C146.526,67.117 146.577,67.186 146.657,67.278C146.736,67.369 146.839,67.456 146.966,67.54C147.093,67.623 147.244,67.696 147.418,67.76C147.593,67.823 147.791,67.855 148.013,67.855C148.267,67.855 148.497,67.817 148.704,67.742C148.91,67.666 149.084,67.545 149.227,67.379C149.37,67.212 149.481,66.996 149.56,66.73C149.64,66.465 149.679,66.137 149.679,65.749L149.679,62L148.716,62ZM153.559,66.927L152.309,66.927L152.309,63.761C152.309,63.357 152.361,63.081 152.464,62.934C152.567,62.787 152.742,62.714 152.988,62.714C153.13,62.714 153.253,62.734 153.357,62.774C153.46,62.813 153.535,62.849 153.583,62.881L153.714,62.107C153.674,62.075 153.579,62.026 153.428,61.958C153.277,61.891 153.075,61.857 152.821,61.857C152.329,61.857 151.96,61.994 151.714,62.268C151.468,62.541 151.345,62.996 151.345,63.63L151.345,66.927L150.655,66.927L150.655,67.569L151.345,67.712L151.452,69.307L152.309,69.307L152.309,67.712L153.678,67.712L153.559,66.927ZM161.234,67.712L159.497,62L158.64,62L158.057,63.999C157.97,64.285 157.896,64.551 157.837,64.796C157.777,65.042 157.74,65.277 157.724,65.499L157.7,65.499C157.684,65.277 157.641,65.039 157.569,64.785C157.498,64.531 157.414,64.265 157.319,63.987L156.665,62L155.844,62L154.047,67.712L155.082,67.712L155.939,64.475C156.018,64.174 156.088,63.894 156.147,63.636C156.207,63.378 156.24,63.135 156.248,62.904L156.272,62.904C156.296,63.135 156.345,63.374 156.421,63.624C156.496,63.874 156.581,64.146 156.677,64.439L157.295,66.308L156.867,67.712L157.867,67.712L158.735,64.558C158.823,64.233 158.902,63.928 158.973,63.642C159.045,63.357 159.084,63.111 159.092,62.904L159.116,62.904C159.132,63.111 159.172,63.359 159.235,63.648C159.299,63.938 159.374,64.241 159.461,64.558L160.306,67.712L161.234,67.712ZM163.091,62L162.127,62L162.127,67.712L163.091,67.712L163.091,62ZM162.615,69.092C162.416,69.092 162.258,69.156 162.139,69.283C162.02,69.41 161.96,69.576 161.96,69.783C161.96,69.981 162.02,70.144 162.139,70.271C162.258,70.397 162.416,70.461 162.615,70.461C162.805,70.461 162.96,70.397 163.079,70.271C163.198,70.144 163.257,69.981 163.257,69.783C163.257,69.576 163.198,69.41 163.079,69.283C162.96,69.156 162.805,69.092 162.615,69.092ZM167.744,66.605C167.72,66.629 167.682,66.665 167.631,66.712C167.579,66.76 167.514,66.808 167.434,66.855C167.355,66.903 167.26,66.945 167.149,66.98C167.038,67.016 166.911,67.034 166.768,67.034C166.562,67.034 166.369,66.996 166.191,66.921C166.012,66.845 165.857,66.724 165.727,66.558C165.596,66.391 165.493,66.175 165.417,65.909C165.342,65.643 165.304,65.32 165.304,64.939C165.304,64.519 165.338,64.166 165.405,63.88C165.473,63.595 165.566,63.367 165.685,63.196C165.804,63.025 165.949,62.902 166.119,62.827C166.29,62.752 166.478,62.714 166.685,62.714C166.978,62.714 167.202,62.766 167.357,62.869C167.512,62.972 167.621,63.055 167.684,63.119L168.077,62.452C168.037,62.405 167.98,62.347 167.904,62.28C167.829,62.212 167.732,62.147 167.613,62.083C167.494,62.02 167.349,61.966 167.178,61.923C167.008,61.879 166.811,61.857 166.589,61.857C166.272,61.857 165.975,61.909 165.697,62.012C165.419,62.115 165.177,62.286 164.971,62.524C164.765,62.762 164.602,63.071 164.483,63.452C164.364,63.833 164.305,64.305 164.305,64.868C164.305,65.415 164.376,65.879 164.519,66.26C164.662,66.641 164.848,66.948 165.078,67.183C165.308,67.417 165.564,67.587 165.846,67.694C166.127,67.801 166.411,67.855 166.696,67.855C166.911,67.855 167.099,67.835 167.262,67.795C167.424,67.756 167.563,67.706 167.678,67.647C167.793,67.587 167.888,67.524 167.964,67.456C168.039,67.389 168.101,67.331 168.148,67.284L167.744,66.605ZM171.314,65.094L173.277,62L172.123,62L170.516,64.666L170.124,64.666L170.124,62L169.16,62L169.16,70.413L170.124,70.52L170.124,65.487L170.528,65.487L172.063,67.712L173.206,67.712L171.314,65.094ZM175.086,63.333C175.086,63.095 175.12,62.928 175.187,62.833C175.255,62.738 175.372,62.69 175.538,62.69C175.625,62.69 175.699,62.698 175.758,62.714C175.818,62.73 175.863,62.746 175.895,62.762L175.978,62.048C175.931,62.024 175.844,61.992 175.717,61.952C175.59,61.913 175.419,61.893 175.205,61.893C174.88,61.893 174.618,61.992 174.42,62.19C174.221,62.389 174.122,62.742 174.122,63.249L174.122,70.413L175.086,70.52L175.086,63.333ZM180.845,62L179.965,62L179.965,62.643L179.941,62.643C179.917,62.595 179.866,62.526 179.786,62.434C179.707,62.343 179.606,62.256 179.483,62.173C179.36,62.089 179.211,62.016 179.037,61.952C178.862,61.889 178.668,61.857 178.454,61.857C178.2,61.857 177.972,61.895 177.769,61.97C177.567,62.046 177.395,62.167 177.252,62.333C177.109,62.5 177,62.716 176.925,62.982C176.849,63.248 176.811,63.575 176.811,63.964L176.811,67.712L177.775,67.712L177.775,64.035C177.775,63.559 177.853,63.22 178.007,63.017C178.162,62.815 178.402,62.714 178.727,62.714C179.005,62.714 179.239,62.783 179.429,62.922C179.62,63.061 179.771,63.198 179.882,63.333L179.882,67.712L180.845,67.712L180.845,62ZM185.439,62L185.439,65.677C185.439,66.161 185.358,66.508 185.195,66.718C185.032,66.929 184.784,67.034 184.451,67.034C184.166,67.034 183.928,66.962 183.737,66.82C183.547,66.677 183.396,66.538 183.285,66.403L183.285,62L182.321,62L182.321,67.712L183.202,67.712L183.202,67.069L183.226,67.069C183.249,67.117 183.301,67.186 183.38,67.278C183.46,67.369 183.563,67.456 183.69,67.54C183.817,67.623 183.967,67.696 184.142,67.76C184.316,67.823 184.515,67.855 184.737,67.855C184.991,67.855 185.221,67.817 185.427,67.742C185.633,67.666 185.808,67.545 185.951,67.379C186.093,67.212 186.205,66.996 186.284,66.73C186.363,66.465 186.403,66.137 186.403,65.749L186.403,62L185.439,62ZM191.936,66.962L191.222,66.962C191.405,66.661 191.496,66.32 191.496,65.939C191.496,65.637 191.446,65.366 191.347,65.124C191.248,64.882 191.109,64.677 190.931,64.511C190.752,64.344 190.542,64.217 190.3,64.13C190.058,64.043 189.798,63.999 189.521,63.999L189.366,63.999C189.318,63.999 189.267,64.003 189.211,64.011C189.116,63.971 189.017,63.908 188.914,63.821C188.811,63.733 188.759,63.618 188.759,63.476C188.759,63.357 188.805,63.259 188.896,63.184C188.987,63.109 189.136,63.071 189.342,63.071L190.068,63.071C190.338,63.071 190.588,63.043 190.818,62.988C191.048,62.932 191.248,62.843 191.419,62.72C191.589,62.597 191.722,62.44 191.817,62.25C191.913,62.06 191.96,61.829 191.96,61.56C191.96,61.25 191.895,60.969 191.764,60.715C191.633,60.461 191.448,60.243 191.21,60.06C190.972,59.878 190.683,59.735 190.342,59.632C190.001,59.529 189.62,59.477 189.199,59.477C188.588,59.477 188.124,59.61 187.807,59.876C187.49,60.142 187.331,60.524 187.331,61.024C187.331,61.238 187.369,61.423 187.444,61.578C187.519,61.732 187.609,61.867 187.712,61.982C187.815,62.097 187.92,62.188 188.027,62.256C188.134,62.323 188.22,62.377 188.283,62.417L188.283,62.44C188.037,62.623 187.914,62.889 187.914,63.238C187.914,63.388 187.944,63.519 188.003,63.63C188.063,63.741 188.13,63.833 188.206,63.904C188.281,63.975 188.356,64.033 188.432,64.077C188.507,64.12 188.565,64.15 188.604,64.166L188.604,64.19C188.311,64.325 188.075,64.537 187.896,64.826C187.718,65.116 187.629,65.487 187.629,65.939C187.629,66.256 187.68,66.536 187.783,66.778C187.886,67.02 188.025,67.22 188.2,67.379C188.374,67.538 188.579,67.656 188.813,67.736C189.047,67.815 189.299,67.855 189.568,67.855C189.838,67.855 190.092,67.807 190.33,67.712L192.067,67.712L191.936,66.962ZM189.283,62.179C189.116,62.179 188.969,62.19 188.842,62.214C188.771,62.175 188.702,62.127 188.634,62.071C188.567,62.016 188.505,61.948 188.45,61.869C188.394,61.79 188.349,61.697 188.313,61.589C188.277,61.482 188.259,61.357 188.259,61.215C188.259,60.604 188.596,60.298 189.271,60.298C189.85,60.298 190.278,60.411 190.556,60.637C190.834,60.864 190.972,61.123 190.972,61.417C190.972,61.695 190.885,61.891 190.711,62.006C190.536,62.121 190.302,62.179 190.009,62.179L189.283,62.179ZM190.556,65.939C190.556,66.351 190.459,66.645 190.264,66.82C190.07,66.994 189.842,67.081 189.58,67.081C189.302,67.081 189.064,66.994 188.866,66.82C188.668,66.645 188.569,66.351 188.569,65.939C188.569,65.526 188.668,65.233 188.866,65.058C189.064,64.884 189.295,64.796 189.556,64.796C189.834,64.796 190.07,64.884 190.264,65.058C190.459,65.233 190.556,65.526 190.556,65.939ZM67.236,50L66.356,50L66.356,50.643L66.332,50.643C66.308,50.595 66.256,50.526 66.177,50.434C66.098,50.343 65.997,50.256 65.874,50.173C65.751,50.089 65.602,50.016 65.427,49.952C65.253,49.889 65.058,49.857 64.844,49.857C64.59,49.857 64.362,49.895 64.16,49.97C63.958,50.046 63.785,50.167 63.642,50.333C63.5,50.5 63.391,50.716 63.315,50.982C63.24,51.248 63.202,51.575 63.202,51.964L63.202,55.712L64.166,55.712L64.166,52.035C64.166,51.559 64.243,51.22 64.398,51.017C64.553,50.815 64.793,50.714 65.118,50.714C65.396,50.714 65.63,50.783 65.82,50.922C66.01,51.061 66.161,51.198 66.272,51.333L66.272,55.712L67.236,55.712L67.236,50ZM71.83,50L71.83,53.677C71.83,54.161 71.748,54.508 71.586,54.718C71.423,54.929 71.175,55.034 70.842,55.034C70.556,55.034 70.318,54.962 70.128,54.82C69.938,54.677 69.787,54.538 69.676,54.403L69.676,50L68.712,50L68.712,55.712L69.592,55.712L69.592,55.069L69.616,55.069C69.64,55.117 69.692,55.186 69.771,55.278C69.85,55.369 69.953,55.456 70.08,55.539C70.207,55.623 70.358,55.696 70.533,55.76C70.707,55.823 70.905,55.855 71.128,55.855C71.381,55.855 71.611,55.817 71.818,55.742C72.024,55.666 72.199,55.545 72.341,55.379C72.484,55.212 72.595,54.996 72.675,54.73C72.754,54.465 72.794,54.137 72.794,53.749L72.794,50L71.83,50ZM73.972,52.773C73.972,53.352 74.047,53.836 74.198,54.225C74.348,54.613 74.543,54.927 74.781,55.165C75.019,55.403 75.289,55.571 75.59,55.67C75.891,55.77 76.193,55.819 76.494,55.819C76.677,55.819 76.836,55.805 76.97,55.777C77.105,55.75 77.216,55.716 77.304,55.676L77.304,58.413L78.268,58.52L78.268,50L77.387,50L77.387,50.607L77.363,50.607C77.339,50.559 77.296,50.494 77.232,50.411C77.169,50.327 77.082,50.244 76.97,50.161C76.859,50.077 76.721,50.006 76.554,49.946C76.387,49.887 76.193,49.857 75.971,49.857C75.701,49.857 75.445,49.911 75.203,50.018C74.961,50.125 74.749,50.295 74.567,50.53C74.384,50.764 74.239,51.065 74.132,51.434C74.025,51.803 73.972,52.249 73.972,52.773ZM76.233,50.714C76.383,50.714 76.518,50.734 76.637,50.774C76.756,50.813 76.859,50.863 76.947,50.922C77.034,50.982 77.107,51.043 77.167,51.107C77.226,51.17 77.272,51.226 77.304,51.273L77.304,54.796C77.216,54.851 77.115,54.899 77,54.939C76.885,54.978 76.74,54.998 76.566,54.998C76.344,54.998 76.135,54.96 75.941,54.885C75.747,54.81 75.578,54.685 75.435,54.51C75.293,54.336 75.18,54.109 75.096,53.832C75.013,53.554 74.971,53.213 74.971,52.808C74.971,52.412 75.005,52.081 75.072,51.815C75.14,51.549 75.233,51.335 75.352,51.172C75.471,51.01 75.606,50.893 75.757,50.821C75.907,50.75 76.066,50.714 76.233,50.714ZM86.776,56.117C86.776,55.831 86.74,55.581 86.669,55.367C86.598,55.153 86.5,54.968 86.377,54.814C86.254,54.659 86.112,54.534 85.949,54.439C85.786,54.344 85.618,54.272 85.443,54.225L85.443,54.201C85.657,54.161 85.858,54.086 86.044,53.975C86.231,53.864 86.393,53.725 86.532,53.558C86.671,53.392 86.782,53.195 86.865,52.969C86.949,52.743 86.99,52.495 86.99,52.225C86.99,51.9 86.935,51.603 86.824,51.333C86.713,51.063 86.54,50.829 86.306,50.631C86.072,50.432 85.776,50.278 85.419,50.167C85.062,50.056 84.638,50 84.146,50L82.468,50L82.468,58.211L84.051,58.211C84.535,58.211 84.949,58.161 85.295,58.062C85.64,57.963 85.923,57.822 86.145,57.64C86.367,57.457 86.528,57.237 86.627,56.979C86.726,56.722 86.776,56.434 86.776,56.117ZM85.729,56.081C85.729,56.462 85.594,56.775 85.324,57.021C85.055,57.267 84.63,57.39 84.051,57.39L83.504,57.39L83.504,54.558L84.039,54.558C84.594,54.558 85.015,54.693 85.3,54.962C85.586,55.232 85.729,55.605 85.729,56.081ZM85.884,52.297C85.884,52.741 85.739,53.092 85.449,53.35C85.16,53.608 84.745,53.737 84.206,53.737L83.504,53.737L83.504,50.857L84.146,50.857C84.757,50.857 85.199,50.978 85.473,51.22C85.747,51.462 85.884,51.821 85.884,52.297ZM87.93,51.452C87.93,51.785 87.994,52.063 88.121,52.285C88.248,52.507 88.418,52.687 88.632,52.826C88.847,52.965 89.099,53.064 89.388,53.124C89.678,53.183 89.985,53.213 90.31,53.213L90.608,53.213L90.608,53.76C90.608,54.244 90.522,54.578 90.352,54.76C90.181,54.943 89.941,55.034 89.632,55.034C89.346,55.034 89.108,54.972 88.918,54.849C88.728,54.726 88.577,54.617 88.466,54.522L88.061,55.165C88.125,55.228 88.206,55.3 88.305,55.379C88.404,55.458 88.525,55.533 88.668,55.605C88.811,55.676 88.974,55.736 89.156,55.783C89.339,55.831 89.545,55.855 89.775,55.855C90.362,55.855 90.806,55.692 91.108,55.367C91.409,55.042 91.56,54.518 91.56,53.796L91.56,51.19C91.56,50.944 91.568,50.704 91.584,50.47C91.6,50.236 91.615,50.079 91.631,50L90.715,50L90.679,50.631L90.655,50.631C90.624,50.559 90.576,50.478 90.513,50.387C90.449,50.295 90.37,50.212 90.275,50.137C90.179,50.062 90.064,49.996 89.93,49.941C89.795,49.885 89.636,49.857 89.454,49.857C89.239,49.857 89.039,49.897 88.853,49.976C88.666,50.056 88.504,50.167 88.365,50.309C88.226,50.452 88.119,50.621 88.043,50.815C87.968,51.01 87.93,51.222 87.93,51.452ZM89.656,50.678C89.791,50.678 89.91,50.698 90.013,50.738C90.116,50.778 90.205,50.825 90.281,50.881C90.356,50.936 90.419,50.998 90.471,51.065C90.522,51.133 90.568,51.19 90.608,51.238L90.608,52.499L90.298,52.487C89.838,52.471 89.489,52.392 89.251,52.249C89.013,52.106 88.894,51.876 88.894,51.559C88.894,51.265 88.962,51.045 89.097,50.899C89.231,50.752 89.418,50.678 89.656,50.678ZM97.01,50L96.129,50L96.129,50.643L96.106,50.643C96.082,50.595 96.03,50.526 95.951,50.434C95.872,50.343 95.77,50.256 95.647,50.173C95.525,50.089 95.376,50.016 95.201,49.952C95.027,49.889 94.832,49.857 94.618,49.857C94.364,49.857 94.136,49.895 93.934,49.97C93.732,50.046 93.559,50.167 93.416,50.333C93.273,50.5 93.164,50.716 93.089,50.982C93.014,51.248 92.976,51.575 92.976,51.964L92.976,55.712L93.94,55.712L93.94,52.035C93.94,51.559 94.017,51.22 94.172,51.017C94.327,50.815 94.567,50.714 94.892,50.714C95.17,50.714 95.403,50.783 95.594,50.922C95.784,51.061 95.935,51.198 96.046,51.333L96.046,55.712L97.01,55.712L97.01,50ZM105.066,55.712L103.329,50L102.472,50L101.889,51.999C101.802,52.285 101.728,52.551 101.669,52.797C101.609,53.042 101.572,53.277 101.556,53.499L101.532,53.499C101.516,53.277 101.473,53.039 101.401,52.785C101.33,52.531 101.246,52.265 101.151,51.987L100.497,50L99.676,50L97.879,55.712L98.914,55.712L99.771,52.475C99.85,52.174 99.92,51.894 99.979,51.636C100.039,51.378 100.072,51.135 100.08,50.904L100.104,50.904C100.128,51.135 100.177,51.375 100.253,51.624C100.328,51.874 100.413,52.146 100.509,52.44L101.127,54.308L100.699,55.712L101.699,55.712L102.567,52.559C102.655,52.233 102.734,51.928 102.805,51.642C102.877,51.357 102.916,51.111 102.924,50.904L102.948,50.904C102.964,51.111 103.004,51.359 103.067,51.648C103.131,51.938 103.206,52.241 103.293,52.559L104.138,55.712L105.066,55.712ZM109.541,53.784C109.541,53.538 109.533,53.326 109.517,53.148C109.501,52.969 109.485,52.812 109.469,52.678L106.554,52.678C106.586,52.003 106.73,51.507 106.988,51.19C107.246,50.873 107.617,50.714 108.101,50.714C108.267,50.714 108.418,50.734 108.553,50.774C108.688,50.813 108.805,50.861 108.904,50.916C109.003,50.972 109.087,51.027 109.154,51.083C109.221,51.138 109.271,51.182 109.303,51.214L109.66,50.536C109.62,50.496 109.561,50.438 109.481,50.363C109.402,50.288 109.295,50.212 109.16,50.137C109.025,50.062 108.858,49.996 108.66,49.941C108.462,49.885 108.228,49.857 107.958,49.857C107.601,49.857 107.278,49.917 106.988,50.036C106.699,50.155 106.453,50.339 106.25,50.589C106.048,50.839 105.891,51.156 105.78,51.541C105.669,51.926 105.614,52.388 105.614,52.927C105.614,53.435 105.671,53.874 105.786,54.242C105.901,54.611 106.058,54.915 106.256,55.153C106.455,55.391 106.685,55.567 106.947,55.682C107.208,55.797 107.49,55.855 107.791,55.855C108.339,55.855 108.767,55.682 109.077,55.337C109.386,54.992 109.541,54.474 109.541,53.784ZM107.732,55.069C107.391,55.069 107.117,54.927 106.911,54.641C106.705,54.355 106.586,53.943 106.554,53.403L108.636,53.403C108.644,53.443 108.65,53.501 108.654,53.576C108.658,53.651 108.66,53.733 108.66,53.82C108.66,54.217 108.581,54.524 108.422,54.742C108.263,54.96 108.033,55.069 107.732,55.069ZM113.289,54.558C113.226,54.629 113.111,54.726 112.944,54.849C112.778,54.972 112.559,55.034 112.29,55.034C112.036,55.034 111.841,54.974 111.707,54.855C111.572,54.736 111.504,54.593 111.504,54.427C111.504,54.213 111.566,54.036 111.689,53.897C111.812,53.758 112,53.61 112.254,53.451L112.611,53.237C113,53.007 113.305,52.759 113.527,52.493C113.749,52.227 113.86,51.884 113.86,51.464C113.86,51.012 113.704,50.631 113.39,50.321C113.077,50.012 112.627,49.857 112.04,49.857C111.81,49.857 111.607,49.881 111.433,49.929C111.258,49.976 111.106,50.032 110.975,50.095C110.844,50.159 110.735,50.228 110.647,50.303C110.56,50.379 110.489,50.448 110.433,50.512L110.897,51.273C110.945,51.226 111.002,51.17 111.07,51.107C111.137,51.043 111.219,50.982 111.314,50.922C111.409,50.863 111.516,50.813 111.635,50.774C111.754,50.734 111.893,50.714 112.052,50.714C112.337,50.714 112.555,50.778 112.706,50.904C112.857,51.031 112.932,51.186 112.932,51.368C112.932,51.503 112.914,51.62 112.879,51.72C112.843,51.819 112.789,51.908 112.718,51.987C112.647,52.067 112.559,52.142 112.456,52.213C112.353,52.285 112.234,52.364 112.099,52.451L111.742,52.678C111.385,52.908 111.106,53.15 110.903,53.403C110.701,53.657 110.6,53.983 110.6,54.379C110.6,54.593 110.641,54.79 110.725,54.968C110.808,55.147 110.925,55.301 111.076,55.432C111.227,55.563 111.403,55.666 111.605,55.742C111.808,55.817 112.024,55.855 112.254,55.855C112.476,55.855 112.666,55.833 112.825,55.789C112.984,55.746 113.121,55.69 113.236,55.623C113.351,55.555 113.446,55.488 113.521,55.42C113.597,55.353 113.658,55.295 113.706,55.248L113.289,54.558ZM118.656,53.784C118.656,53.538 118.648,53.326 118.632,53.148C118.616,52.969 118.601,52.812 118.585,52.678L115.669,52.678C115.701,52.003 115.846,51.507 116.104,51.19C116.361,50.873 116.732,50.714 117.216,50.714C117.383,50.714 117.534,50.734 117.668,50.774C117.803,50.813 117.92,50.861 118.019,50.916C118.119,50.972 118.202,51.027 118.269,51.083C118.337,51.138 118.386,51.182 118.418,51.214L118.775,50.536C118.735,50.496 118.676,50.438 118.597,50.363C118.517,50.288 118.41,50.212 118.275,50.137C118.14,50.062 117.974,49.996 117.775,49.941C117.577,49.885 117.343,49.857 117.073,49.857C116.716,49.857 116.393,49.917 116.104,50.036C115.814,50.155 115.568,50.339 115.366,50.589C115.164,50.839 115.007,51.156 114.896,51.541C114.785,51.926 114.729,52.388 114.729,52.927C114.729,53.435 114.787,53.874 114.902,54.242C115.017,54.611 115.173,54.915 115.372,55.153C115.57,55.391 115.8,55.567 116.062,55.682C116.324,55.797 116.605,55.855 116.907,55.855C117.454,55.855 117.883,55.682 118.192,55.337C118.501,54.992 118.656,54.474 118.656,53.784ZM116.847,55.069C116.506,55.069 116.233,54.927 116.026,54.641C115.82,54.355 115.701,53.943 115.669,53.403L117.752,53.403C117.76,53.443 117.766,53.501 117.77,53.576C117.774,53.651 117.775,53.733 117.775,53.82C117.775,54.217 117.696,54.524 117.537,54.742C117.379,54.96 117.149,55.069 116.847,55.069ZM123.059,50L123.059,53.677C123.059,54.161 122.978,54.508 122.815,54.718C122.653,54.929 122.405,55.034 122.071,55.034C121.786,55.034 121.548,54.962 121.357,54.82C121.167,54.677 121.016,54.538 120.905,54.403L120.905,50L119.941,50L119.941,55.712L120.822,55.712L120.822,55.069L120.846,55.069C120.87,55.117 120.921,55.186 121,55.278C121.08,55.369 121.183,55.456 121.31,55.539C121.437,55.623 121.588,55.696 121.762,55.76C121.936,55.823 122.135,55.855 122.357,55.855C122.611,55.855 122.841,55.817 123.047,55.742C123.254,55.666 123.428,55.545 123.571,55.379C123.714,55.212 123.825,54.996 123.904,54.73C123.983,54.465 124.023,54.137 124.023,53.749L124.023,50L123.059,50Z" style="fill-rule:nonzero;"/>
        </g>
    </g>
</svg>
